<svg width="471" height="503" fill="none" xmlns="http://www.w3.org/2000/svg"><g clip-path="url(#clip0)"><path fill="#fff" d="M0 0h471v503H0z"/><path d="M-295.481 441.108c27.961 23.558 62.922 40.861 97.479 55.169 36.562 15.135 77.03 19.955 116.804 22.486 20.926 1.324 41.888 1.983 62.819 3.172 20.2 1.147 40.452 2.392 59.953 7.565 34.142 9.047 63.223 28.705 89.35 49.816 13.02 10.523 25.454 21.608 37.987 32.596 6.3 5.512 12.496 11.132 19.252 16.193 8.134 6.107 16.761 11.801 23.475 19.115 3.658 3.957 9.232 7.017 13.698 10.235l16.864 12.158c5.502 3.975 10.979 7.992 16.481 11.982h1.616a10783.685 10783.685 0 00-38.463-27.836c-7.45-5.364-13.356-11.596-20.693-17.109-8.16-6.12-16.294-12.162-23.946-18.794-24.562-21.274-48.369-43.416-75.916-61.625-27.36-18.093-57.97-30.033-91.868-33.195-41.701-3.878-83.755-3.502-125.389-8.164-21.48-2.392-42.722-6.437-63.223-12.753-19.397-5.967-38.012-14.754-55.85-23.767-17.796-8.991-34.722-19.329-50.561-30.906-16.459-12.041-27.945-26.722-33.204-45.419-11.004-39.104 24.257-71.235 48.975-98.848 26.091-29.15 50.835-59.252 75.688-89.257a7411.927 7411.927 0 0118.714-22.512c3.611-4.32 7.284-8.406 11.543-12.239 3.285-2.953 7.025-5.703 9.393-9.337 4.917-7.551 13.232-13.718 20.071-19.937 8.035-7.308 16.475-13.803 25.547-20.034 7.968-5.476 15.45-11.168 24.04-15.884 9.294-5.102 18.998-9.592 28.826-13.798 19.973-8.554 40.852-14.416 62.016-20.068 40.566-10.827 81.786-19.474 122.036-31.27 18.263-5.35 36.148-11.626 53.11-19.784 11.864-5.703 29.195-13.379 18.076-26.927-5.782-7.036-15.397-10.812-24.174-13.838A509.71 509.71 0 01165.839-15h-3.798c.342.13.699.272 1.041.403 9.559 3.589 19.387 5.845 28.055 11.145 4.844 2.953 10.538 7.959 11.004 13.52.581 6.95-7.31 10.714-12.9 13.781-9.036 4.944-18.543 9.144-28.221 12.965-38.504 15.181-80.143 23.605-120.544 33.554C19.72 75.476-.961 80.838-21.436 86.786c-19.144 5.549-37.37 13.015-54.985 21.739-17.367 8.6-33.609 19.729-48.307 31.679-7.171 5.826-13.833 12.143-20.558 18.373-6.974 6.445-12.284 13.605-19.33 19.948-14.486 13.033-25.863 29.427-38.085 44.195-12.636 15.255-25.278 30.498-38.116 45.618-13.429 15.816-27.128 31.456-41.173 46.83-11.921 13.05-23.713 25.873-31.666 41.338-14.662 28.503-7.455 63.004 18.175 84.602z" fill="#DBDBDB"/><path d="M-299.52 457.834c30.52 23.197 68.585 39.646 104.934 54.056 18.636 7.379 37.867 13.087 57.892 16.496 20.034 3.413 40.488 4.56 60.824 5.452 41.447 1.839 83.786 2.294 123.031 15.887 18.962 6.562 34.759 16.983 50.95 27.752 16.899 11.238 33.696 22.598 48.762 35.819 13.838 12.153 28.433 22.848 43.851 33.311 16.698 11.336 32.951 23.206 49.255 34.988h1.596c-12.942-9.321-25.879-18.627-38.883-27.869-15.62-11.099-32.08-21.26-46.649-33.501-14.268-12.01-28.184-23.722-43.763-34.38-15.584-10.653-31.106-21.961-48.41-30.269-34.19-16.407-73.689-19.718-111.712-21.488-43.359-2.015-86.474-2.8-127.766-16.291-20.382-6.654-39.805-15.52-59.084-24.399-18.2-8.392-36.028-17.359-52.622-28.152-31.811-20.703-60.872-50.123-60.094-87.46.411-19.704 10.782-36.013 25.174-50.231 14.3-14.121 29.672-27.41 44.349-41.219 28.733-27.034 52.638-57.182 76.569-87.658 24.195-30.828 52.058-59.053 85.107-82.437C-82.517 92.403-43.127 79.625-2.586 68.503c38.618-10.59 78.563-18.89 115.571-33.594 12.398-4.926 27.702-12.08 29.598-25.515C144.101-1.35 131.641-9.342 121.17-15h-2.393c1.394.8 2.798 1.599 4.191 2.438 9.777 5.93 21.019 12.925 18.009 24.954-2.212 8.838-12.61 14.4-20.781 18.368-8.869 4.314-18.49 7.67-27.914 10.878-19.507 6.638-40.085 11.248-60.068 16.581C11.34 63.786-9.565 69.28-30.247 75.396c-36.987 10.93-70.259 27.047-99.811 49.92-30.961 23.957-56.047 52.16-79.361 82.142-25.013 32.166-51.757 62.184-82.19 90.341-13.636 12.618-28.894 24.779-40.598 38.939-10.49 12.704-15.935 27.216-16.264 43.044-.67 32.189 23.067 58.368 48.951 78.052zm993.674-303.503c-14.901-2.144-29.677-5.109-44.613-7.093-7.818-1.037-15.051-3.616-22.879-5.101-10.16-1.928-20.19-4.326-30.133-7.002-40.893-11.015-79.47-29.11-117.897-45.606-19.236-8.26-38.541-16.428-58.093-24.064-18.802-7.337-38.101-13.55-56.897-20.868a412.147 412.147 0 01-25.475-10.947c-4.29-2.012-8.512-4.155-12.698-6.337-5.021-2.62-12.357-5.453-15.787-9.79-7.149-9.077 5.617-16.667 12.803-20.51 8.761-4.678 18.418-7.892 28.101-10.612 1.736-.489 3.481-.953 5.238-1.401h-3.503a262.213 262.213 0 00-6.16 1.701 144.83 144.83 0 00-22.262 8.537c-5.046 2.444-13.206 5.72-15.429 10.925-5.808 13.514 10.005 18.644 20.719 24.132 16.454 8.429 33.831 15.3 51.405 21.615 40.167 14.438 79.206 30.595 118.265 47.313 36.779 15.742 73.75 31.576 113.317 40.799 3.911.907 7.854 1.729 11.802 2.528 4.425.896 10.336.999 14.268 3.073 6.145 3.231 14.03 2.862 20.999 3.934 11.662 1.791 23.246 3.979 34.909 5.669v-.895z" fill="#DBDBDB"/><path d="M78.122-15h-2.165c4.538 2.466 8.916 5.159 12.802 8.504 5.258 4.524 7.926 10.323 6.398 16.82-1.974 8.48-16.164 14.182-24.019 17.72C36.162 43.809-2.338 50.691-39.324 61.497c-36.308 10.605-70.823 28.826-99.329 51.649-30.795 24.643-56.809 54.427-82.174 83.497-19.061 21.848-37.106 44.546-58.954 64.217-4.114 3.702-9.352 6.032-13.647 9.717a138.522 138.522 0 01-16.439 12.063c-5.776 3.622-12.051 6.536-18.62 8.792-3.342 1.152-6.813 1.928-10.294 2.591-6.845 1.304-10.342-2.387-13.303-6.762-.334-.506-1.22-.046-.878.464 2.732 4.031 4.471 7.33 10.011 7.817 7.123.635 16.365-3.571 22.639-6.287 7.072-3.061 13.507-7.244 19.59-11.666 3.326-2.42 6.465-5.033 9.553-7.686 3.223-2.757 7.186-3.964 10.289-6.758 29.361-26.428 53.027-57.596 79.134-86.605 25.998-28.894 53.638-58.252 87.687-79.704 16.356-10.312 34.013-19.66 52.332-26.825 19.279-7.54 39.717-12.443 59.996-17.234 8.906-2.104 17.34-5.64 26.205-7.84 4.015-.992 8.02-1.1 11.854-2.682 5.113-2.114 10.372-3.95 15.61-5.82 7.968-2.852 15.885-5.76 23.485-9.331 3.746-1.764 7.31-3.81 10.756-6.01 2.398-1.53 7.154-4.013 8.31-6.395C101.079 1.021 90.593-7.947 78.122-15zm615.541 158.502c-33.458-4.252-66.419-11.184-98.396-21.15-19.123-5.958-38.007-13.021-56.047-21.298-8.243-3.782-15.973-8.43-24.221-12.234-9.258-4.263-18.972-7.857-28.459-11.684C451.476 63 416.629 48.532 385.616 27.857c-22.77-15.18 2.948-31.513 18.972-38.316 4.062-1.729 8.197-3.214 12.383-4.541h-3.274c-2.078.714-4.125 1.48-6.15 2.307-11.725 4.784-26.309 10.743-30.998 22.568-5.694 14.371 13.813 22.477 24.827 28.99 16.631 9.842 34.365 18.096 52.328 25.794 17.91 7.677 36.162 14.717 54.187 22.19 17.833 7.39 34.355 16.875 52.363 24.074 36.987 14.779 76.186 24.853 116.017 31.106a561.006 561.006 0 0017.392 2.432v-.959z" fill="#DBDBDB"/><path d="M693.873 130.651c-3.57-.539-7.134-1.077-10.689-1.644a560.381 560.381 0 01-15.294-2.653c-4.756-.89-10.636-3.266-15.444-3.282-10.445-.046-20.185-4.275-30.075-7.001-10.326-2.841-20.698-5.476-30.863-8.73-19.418-6.214-38.178-15.097-56.861-22.903-17.765-7.426-35.303-15.306-52.084-24.433-8.123-4.416-15.977-9.229-23.588-14.325-8.538-5.72-17.688-12.455-24.2-20.102-8.02-9.422.238-19.303 8.869-25.159 7.057-4.806 15.797-7.187 23.957-10.011A405.099 405.099 0 01484.382-15h-3.072c-1.544.47-3.088.942-4.632 1.423-13.973 4.405-29.961 8.453-40.23 18.645-3.585 3.555-6.709 8.803-6.227 13.69.647 6.44 7.766 11.724 12.739 15.584 3.285 2.557 6.197 5.567 9.689 8.084 3.15 2.28 6.398 4.456 9.662 6.598 8.274 5.443 16.963 10.363 25.806 15.023 16.911 8.923 34.656 16.485 52.442 23.86 12.999 5.386 26.003 10.777 39.033 16.122 13.62 5.585 28.22 9.044 42.499 12.926 7.274 1.978 14.356 4.507 21.641 6.389 2.051.532 4.289.566 6.403.635 4.979.165 10.093 1.797 14.937 2.766 9.538 1.916 19.164 3.418 28.801 4.87v-.964zM22.797-4.88c-5.31-4.457-11.435-7.331-18.253-9.48-.72-.231-1.466-.436-2.202-.64h-3.74c.554.136 1.114.272 1.668.414 7.502 1.87 18.62 5.159 22.464 11.853 6.057 10.579-3.098 15.313-11.662 20.386-7.688 4.564-15.926 6.746-24.614 9.41a1136.58 1136.58 0 00-25.791 8.203c-32.112 10.658-63.985 23.623-91.034 42.772-15.382 10.885-28.666 23.997-42.473 36.434a822.205 822.205 0 00-42.204 40.811c-13.248 13.759-26.78 27.296-41.012 40.243-7.782 7.081-16.051 12.874-25.05 18.616-6.233 3.975-15.191 6.276-21.765 1.265-2.71-2.075-3.471-6.208-5.108-9.048-.228-31.547 2.191-63.343 12.258-93.718a161.333 161.333 0 0121.713-42.822c4.803-6.747 10.351-13.034 16.325-18.957 6.45-6.395 13.781-11.124 21.221-16.48 16.48-11.87 36.955-19.518 56.622-26.128 18.662-6.27 37.945-10.992 57.317-15.113 14.154-3.016 28.407-5.624 42.68-8.141h-5.232c-36.795 6.559-73.818 13.94-108.473 27.126-8.824 3.356-17.455 7.036-25.905 11.1-9.067 4.36-16.403 9.875-24.822 15.079-12.895 7.976-23.35 20.844-31.712 32.59-17.714 24.875-26.164 54.155-30.158 83.202-2.394 17.359-2.985 34.887-2.86 52.364 0 .012.01.018.01.028 0 .018.01.035.01.051a.887.887 0 00.042.137c.01.005.01.011.01.011 2.368 3.997 3.388 9.875 8.942 11.502 8.228 2.404 14.776-.305 21.424-4.547 7.787-4.971 14.651-9.778 21.428-15.838 7.802-6.979 15.335-14.201 22.754-21.507 14.118-13.901 26.832-29.343 41.629-42.625 15.652-14.042 31.257-28.124 46.882-42.188 28.252-25.414 65.669-41.281 102.53-53.889 8.523-2.92 17.14-5.646 25.766-8.321 4.3-1.333 8.605-2.643 12.916-3.952 3.062-.93 8.45-1.576 10.952-3.362 4.062-2.896 8.44-5.334 12.776-7.867 4.109-2.41 3.212-1.945 5.425-5.738.658-1.123 2.797-3.707 2.29-5.215-.772-2.256-2.228-6.542-3.984-8.022zm-293.864 434.095c8.657 10.409 19.273 19.377 30.8 27.177 25.071 16.95 55.125 27.269 85.247 34.31 35.536 8.298 72.45 12.264 109.085 13.263 21.806.603 43.613.622 65.367 2.247 22.02 1.63 43.675 6.279 64.296 13.435 39.349 13.672 63.404 46.449 91.22 73.208 27.371 26.35 56.322 51.381 87.06 74.522a751.804 751.804 0 0020.325 14.763h1.699c-27.334-19.217-53.291-39.957-78.019-61.872-14.393-12.752-28.309-25.927-41.929-39.353-13.409-13.207-25.744-27.548-40.303-39.761-28.531-23.954-69-33.242-106.98-36.065-21.73-1.612-43.577-1.519-65.358-2.109-21.687-.599-42.98-2.675-64.42-5.6-63.217-8.596-132.429-29.104-166.722-81.497-11.507-17.575-13.304-37.131-3.564-55.828 8.61-16.536 20.34-31.569 32.748-45.946 11.844-13.724 25.185-26.593 35.769-41.14 11.305-15.555 21.185-31.66 33.474-46.648 12.999-15.857 26.345-31.485 41.101-46.072 6.523-6.446 13.118-12.823 19.91-19.041 3.435-3.147 6.963-6.208 10.528-9.235 3.347-2.841 7.502-4.19 10.859-6.922 29.132-23.701 65.487-38.288 102.432-49.133 18.035-5.3 36.39-9.699 54.72-14.092 4.006-.959 8.042-1.843 12.026-2.902 3.227-.862 6.02-2.512 9.512-3.249 10.496-2.206 20.946-4.592 31.308-7.274 9.419-2.436 18.615-4.801 28.205-6.683 3.249-.64 5.616-.93 8.347-2.557 4.476-2.664 12.32-3.015 17.506-4.126 21.708-4.672 43.463-9.23 65.699-11.254 42.79-3.905 85.113 6.401 125.436 18.243 42.048 12.347 82.04 29.54 122.793 44.778 9.538 3.567 19.091 7.087 28.614 10.676 10.512 3.956 20.454 8.996 30.889 13.123 3.626 1.429 7.714 1.604 11.434 3.118 3.896 1.587 7.828 3.101 11.776 4.597 10.129 3.843 20.429 7.308 30.827 10.522 32.997 10.199 67.29 16.922 101.997 20.011v-.935c-36.314-3.271-72.01-10.607-106.515-21.457-10.336-3.254-20.532-6.894-30.599-10.766-3.859-1.49-7.73-3.537-11.724-4.705-5.274-1.552-10.388-2.63-15.481-4.852-18.293-7.982-36.898-14.949-55.669-21.984-40.727-15.278-80.76-32.518-122.969-44.427-39.328-11.088-79.273-20.256-120.809-16.865-20.568 1.683-40.794 5.912-60.839 10.187-7.606 1.62-17.522 2.136-24.112 6.049-3.554 2.12-9.673 2.29-13.813 3.111-5.652 1.129-11.04 2.529-16.568 4.06-9.45 2.607-19.009 4.824-28.599 6.933-4.45.98-9.004 1.734-13.393 2.896-.7.187-1.911 1.032-2.492 1.384-2.393 1.422-5.911 1.75-8.626 2.404-18.366 4.393-36.707 8.798-54.835 13.91-34.443 9.712-67.875 22.648-96.583 42.625-3.652 2.54-7.16 5.239-10.615 7.982-2.886 2.296-6.212 3.067-9.031 5.391-7.781 6.417-15.143 13.237-22.376 20.153-13.647 13.067-27.044 26.593-38.852 41.049-12.522 15.317-24.645 30.38-35.463 46.717-10.885 16.428-23.838 31.003-37.163 45.838-11.75 13.085-23.102 26.457-32.702 40.918-9.45 14.23-16.579 28.913-15.522 45.806.896 14.433 10.279 27.687 19.636 38.944z" fill="#DBDBDB"/><path d="M-54.836 489.799c35.49 1.203 71.31-.353 106.675 2.926 17.864 1.653 35.635 4.815 52.157 11.303 17.247 6.757 30.028 17.698 41.649 30.734 13.279 14.935 25.324 30.724 38.173 45.952 11.968 14.183 25.081 26.916 39.121 39.422 6.704 5.977 13.134 12.214 19.911 18.13 7.854 6.846 16.532 12.878 24.972 19.129 10.988 8.15 21.993 16.277 33.189 24.204h1.632c-12.181-8.591-24.112-17.461-36.065-26.303-15.848-11.735-30.028-24.33-44.587-37.3-15.175-13.519-28.873-27.576-41.691-42.985-11.838-14.229-23.158-28.783-35.515-42.664-10.776-12.107-22.843-21.655-38.479-28.379-14.496-6.232-30.469-9.316-46.291-11.29-34.33-4.263-69.471-2.735-104.038-3.506-72.969-1.621-152.206-12.028-202.916-64.465-6.212-6.429-11.285-13.662-14.486-21.7-3.668-9.217-2.751-18.923-.772-28.357 3.797-18.117 13.993-34.715 24.179-50.474 10.409-16.106 22.988-31.406 35.101-46.503 12.077-15.057 25.847-28.94 35.909-45.164 4.953-7.982 12.046-14.915 17.957-22.352 6.916-8.707 14.237-16.412 22.552-24.071 14.984-13.803 30.298-27.357 47.743-38.667 17.138-11.118 34.898-20.374 53.907-28.674 19.517-8.525 40.085-14.937 60.68-21.031 39.54-11.7 80.039-20.629 120.829-27.936 43.882-7.864 89.48-17.308 134.004-7.75 37.35 8.022 74.134 15.238 110.095 27.653 38.132 13.175 75.03 29.048 112.499 43.657 32.997 12.868 66.657 27.953 102.401 33.264 3.227.476 6.465.794 9.714 1.089 2.746.243 6.73-.056 9.144 1.218.684.358 1.725 1.174 2.508 1.378 8.269 2.199 17.351 2.795 25.904 3.696 9.891 1.049 19.745 2.103 29.495 3.912.695.131 1.394.249 2.088.368v-.89c-4.01-.675-8.009-1.468-11.968-2.046-10.496-1.547-21.122-2.308-31.66-3.645-4.528-.579-10.621-.732-14.621-2.84-2.502-1.315-3.088-1.634-6.046-1.752-11.155-.464-22.185-2.438-32.961-5.011-19.91-4.762-38.831-12.432-57.716-19.694-19.858-7.641-39.691-15.278-59.409-23.203-38.619-15.516-77.414-31.723-118.037-42.563-20.092-5.356-40.645-9.177-61.057-13.367-20.833-4.268-40.971-6.808-62.41-5.992-21.024.806-41.639 4.82-62.269 8.21a1401.973 1401.973 0 00-61.741 11.535c-40.412 8.503-80.232 19.23-118.986 32.596-37.426 12.904-72.2 32.505-101.629 56.939-14.605 12.126-29.531 24.881-41.038 39.478-5.875 7.454-13.299 14.405-18.433 22.217-5.938 9.042-11.746 17.483-18.963 25.776-24.64 28.323-49.457 58.271-67.087 90.652-7.756 14.229-13.735 30.045-13.476 46.065.218 13.753 9.025 26.032 18.708 36.043 47.494 49.124 122.944 60.715 191.451 63.028z" fill="#DBDBDB"/><path d="M-206.185 430.189c23.842 20.113 55.037 31.346 86.614 37.291 15.849 2.967 32.019 4.5 48.162 5.28 20.3.989 40.707 1.871 61.057 1.802 20.097-.065 40.106-2.002 60.234-2.085 21.65-.079 43.37 1.281 64.658 4.978 18.33 3.176 31.976 14.545 42.058 28.063 5.363 7.199 11.373 14.048 15.911 21.697 4.616 7.779 9.274 15.548 14.014 23.257 9.186 14.921 18.636 29.512 30.319 42.98 11.284 13.008 23.682 25.115 36.888 36.543 13.911 12.051 28.698 23.322 43.168 34.807 7.89 6.269 16.454 11.54 25.096 16.723h.845a219.003 219.003 0 01-4.829-3.051c-9.072-5.861-17.822-12.186-26.106-18.924-14.699-11.949-29.879-23.355-43.955-35.917-14.181-12.673-27.159-26.396-38.785-41.029-11.9-15-21.361-31.747-31.065-47.949-8.678-14.489-18.516-29.624-31.09-41.712-11.331-10.909-25.537-15.442-41.5-17.824-20.982-3.139-42.333-3.762-63.56-3.492-21.77.274-43.358 2.28-65.154 1.941-69.767-1.115-154.47-4.704-199.186-61.101-5.414-6.837-9.207-14.535-10.87-22.801-2.031-10.078 1.363-20.203 4.616-29.76 5.611-16.543 14.336-32.08 24.035-46.956 9.367-14.383 19.869-28.146 29.982-42.108 11.17-15.431 21.646-31.078 34.235-45.642 24.853-28.757 54.198-54.812 87.744-75.265 7.88-4.802 16.025-9.235 24.299-13.447 4.145-2.108 8.357-4.104 12.584-6.07 5.145-2.387 12.357-6.826 18.2-7.11 3.089-.153 5.643-1.462 8.461-2.563 5.528-2.148 11.16-4.126 16.787-6.049 10.475-3.571 21.122-6.717 31.81-9.716 41.743-11.712 84.216-22.555 127.653-27.635 43.499-5.09 86.553-3.118 129.321 5.505 34.583 6.972 68.15 17.493 101.722 27.573 8.093 2.432 15.559 6.208 23.045 9.818 6.865 3.305 13.507 5.442 20.859 7.642 18.211 5.464 35.328 13.968 52.493 21.655 14.138 6.338 28.738 11.015 43.587 15.987 16.91 5.663 34.417 9.852 52.063 13.208 27.531 5.237 55.591 7.988 83.656 9.87v-.942c-35.339-2.414-70.569-6.287-104.924-14.387-9.533-2.251-18.931-4.916-28.205-7.88-4.668-1.486-9.268-3.118-13.848-4.801-3.679-1.355-9.212-4.842-13.346-5.04-5.715-.278-11.145-3.514-16.165-5.777a3809.167 3809.167 0 00-13.838-6.173 1849.509 1849.509 0 00-30.811-13.384c-7.87-3.328-16.75-4.417-24.63-7.818-8.471-3.668-16.491-8.095-25.195-11.378-19.289-7.272-40.194-12.318-60.171-17.851-39.614-10.981-80.242-19.297-121.845-19.716-41.888-.42-84.48 5.566-124.715 15.89-20.657 5.3-41.401 10.317-61.902 16.134a592.254 592.254 0 00-29.308 9.155c-4.099 1.4-8.17 2.863-12.207 4.405-4.538 1.728-9.662 2.21-14.014 4.023-35.52 14.774-68.746 34.128-96.842 58.736-14.19 12.427-27.64 25.522-40.08 39.388-12.035 13.424-22.221 27.823-32.468 42.358-19.45 27.579-41.132 54.042-54.54 84.637-6.29 14.342-12.108 30.022-8.238 45.476 3.632 14.513 15.496 26.655 27.216 36.531z" fill="#DBDBDB"/><path d="M-143.887 442.59C-76.545 471.707.2 462.837 71.499 453.87c16.75-2.109 34.003-5.657 50.965-4.468 17.895 1.259 32.479 9.186 43.691 21.488 12.719 13.969 17.905 30.567 25.241 47.039a403.9 403.9 0 0021.797 41.995c16.77 28.221 37.82 54.297 63.207 76.723 13.164 11.633 28.396 20.782 42.929 30.906 6.87 4.787 13.776 9.524 20.983 13.811h1.849c-10.439-6.075-20.19-13.161-30.044-19.979-8.196-5.665-16.771-10.815-24.651-16.848-7.781-5.954-14.962-12.548-21.946-19.249-27.345-26.239-48.369-57.701-64.912-90.307-14.408-28.402-21.501-65.837-55.617-81.097-13.849-6.193-29.423-6.339-44.411-4.561-18.77 2.243-37.515 4.76-56.301 6.952-37.2 4.329-74.828 7.268-112.266 3.887-38.763-3.492-80.516-15.01-110.794-37.856-14.314-10.816-24.277-26.054-25.889-42.924-1.834-19.184 6.622-38.566 15.165-55.703 8.652-17.347 19.206-33.379 29.832-49.767 2.523-3.896 4.445-8.391 8.486-11.203 2.772-1.933 4.16-4.138 6.046-6.808 5.476-7.743 11.341-15.254 17.455-22.596 12.056-14.473 25.531-27.942 39.882-40.584 7.357-6.485 14.87-12.284 23.434-17.443 8.776-5.277 15.682-12.284 24.51-17.546 8.503-5.062 17.103-9.988 25.947-14.562 10.346-5.352 22.195-9.088 33.2-13.192 20.225-7.546 40.742-14.45 61.409-20.941 40.592-12.749 85.257-19.212 128.031-21.769 40.981-2.442 82.128 1.979 121.984 10.55 64.322 13.827 124.949 38.867 183.965 65.159 30.23 13.469 63.937 20.708 97.002 26.122 27.117 4.438 54.566 7.001 82.066 8.571v-.941c-36.759-2.132-73.352-6.122-109.271-13.616-20.998-4.377-43.452-9.343-62.803-18.033-18.05-8.101-36.189-16.032-54.503-23.623-71.476-29.631-147.294-53.718-226.702-55.651-84.636-2.058-166.65 21.361-243.24 51.65-9.418 3.724-18.086 8.214-26.8 13.163-8.575 4.881-17.263 9.512-24.449 15.98-6.652 5.981-14.937 10.023-22.33 15.193-7.978 5.578-15.087 12.738-22.086 19.263-12.921 12.035-24.765 24.977-35.645 38.542-2.756 3.435-5.414 6.934-8.03 10.454-2.663 3.588-4.938 8.112-8.455 11.077-2.695 2.267-4.285 3.209-6.114 6.196-2.886 4.722-5.958 9.354-9.03 13.98-10.341 15.584-19.838 31.321-27.682 48.077-7.419 15.84-13.299 32.608-12.3 50.001 1.814 31.519 33.247 50.861 61.809 63.208z" fill="#DBDBDB"/><path d="M-133.57 422.655c6.466 3.855 12.471 5.409 19.346 8.378 8.595 3.697 17.677 6.419 26.884 8.56 37.245 8.662 77.102 4.513 114.467-1.349 20.64-3.243 40.903-8.231 61.042-13.423 9.766-2.529 19.501-5.114 29.282-7.631 11.207-2.879 21.625-6.814 33.479-4.602 17.657 3.298 31.609 14.546 41.111 27.857 10.077 14.104 13.786 30.418 17.315 46.607 7.004 32.257 17.314 62.564 35.81 91.031 28.723 44.229 71.678 80.986 122.617 103.788h2.285c-54.716-24.046-99.733-64.147-129.078-112.291-3.947-6.474-7.527-13.114-10.88-19.862-1.502-3.06-1.404-6.576-2.984-9.511-2.772-5.127-5.098-10.388-7.098-15.794-6.269-16.95-8.724-34.862-13.076-52.245-6.601-26.328-23.175-52.37-53.804-60.046-7.316-1.825-14.636-1.496-21.884.351-10.424 2.665-20.833 5.568-31.257 8.3-20.086 5.261-40.183 10.453-60.653 14.388-40.183 7.732-83.646 12.323-124.145 4.036-9.968-2.029-19.631-5.136-28.915-8.957-2.197-.907-5.585-3.401-7.984-3.525-4.994-.262-9.103-3.504-13.159-5.92-16.377-9.739-31.697-22.312-36.329-40.113-4.849-18.65 1.083-38.576 8.419-56.014 7.6-18.072 18.061-35.068 29.137-51.582 9.912-14.778 22.553-28.802 34.557-42.244 11.32-12.67 23.677-24.546 37.308-35.226 6.88-5.397 14.724-9.807 21.159-15.608 7.74-6.961 17.19-12.141 26.36-17.454a453.314 453.314 0 0149.473-24.716c35.453-15.097 73.336-24.365 111.799-30.777 21.719-3.616 42.753-7.828 64.954-8.197 22.148-.368 44.659 1.4 66.507 4.581 37.033 5.391 73.766 15.617 109.043 26.932 37.733 12.098 73.352 28.578 109.665 43.696 16.154 6.724 32.406 12.954 49.281 18.084 8.46 2.574 17.351 4.428 26.091 6.004 3.756.674 7.652.76 11.46.833 4.984.102 8.87 1.078 13.574 2.273 3.072.777 6.891.516 10.056.726 5.326.363 10.637.754 15.963 1.145 9.74.72 19.48 1.486 29.23 2.234 13.776 1.054 27.547 2.064 41.349 2.919v-.918c-15.568-.969-31.116-2.131-46.659-3.333-10.642-.816-21.262-1.633-31.904-2.404-5.311-.386-10.637-.742-15.947-1.088-4.746-.307-8.45-2.449-13.31-2.455-20.817-.017-40.945-7.018-60.145-13.639-21.237-7.325-41.701-16.673-62.27-25.403-19.034-8.083-38.033-17.154-57.788-23.679-19.708-6.508-39.556-12.432-59.653-17.885-40.779-11.055-81.713-18.55-124.389-19.507-20.946-.47-40.691 2.098-61.114 5.811-19.672 3.576-39.391 6.735-58.845 11.275-35.593 8.311-69.507 21.378-101.24 38.033-7.995 4.195-15.813 8.668-23.527 13.27-3.958 2.365-7.87 4.802-11.76 7.257-4.467 2.817-7.59 6.956-12.03 9.829-14.398 9.355-27.444 20.272-39.438 32.036-25.236 24.756-47.618 53.043-64.824 82.822-8.89 15.398-16.687 31.712-20.744 48.731-3.471 14.558-4.445 32.358 3.88 45.815 7.849 12.687 20.698 21.928 33.93 29.796z" fill="#DBDBDB"/><path d="M-38.477 429.487c40.4 2.244 79.791-7.834 115.648-24.025 7.523-3.39 15.263-5.385 22.879-8.662 8.704-3.73 17.787-6.712 27.097-8.946 18.439-4.433 38.136-4.511 55.741 2.598 17.558 7.096 30.127 23.117 37.401 38.684 6.995 14.966 9.414 31.417 11.31 47.439.912 7.648 1.643 15.325 2.554 22.978.379 3.232.798 6.464 1.291 9.683.86 5.638 3.227 10.941 3.616 16.621.518 7.472 2.823 14.164 6.227 20.962 2.135 4.291 4.907 8.188 6.901 12.553 1.684 3.71 3.166 7.44 5.114 11.034 2.088 3.855 5.31 7.142 7.74 10.825 2.378 3.604 4.414 7.403 6.766 11.034.342.52 2.306 2.095 2.798 2.536 5.451 4.913.995 1.908 3.197 4.936 2.43 3.321 5.492 6.13 7.616 9.678 1.808 3.019 5.59 5.842 8.123 8.406a304.95 304.95 0 009.777 9.395c7.082 6.589 14.595 12.766 22.402 18.631 20.035 15.033 42.991 27.562 67.492 36.144h4.388c-26.738-8.833-51.959-22.379-72.973-38.15-15.113-11.35-30.267-24.413-41.219-39.172-1.974-2.675-3.912-5.456-5.834-8.085-2.186-3.005-5.212-5.229-7.207-8.457-5.212-8.479-11.688-16.281-15.61-25.318-3.342-7.663-8.02-14.648-11.331-22.301a40.452 40.452 0 01-3.341-14.651c-.177-4.556-2.316-8.606-3.062-13.05-2.679-15.836-3.477-31.867-5.907-47.731-4.377-28.56-15.594-60.215-45.814-74.591-28.889-13.73-63.974-4.399-91.221 7.936-3.632 1.644-7.238 1.383-10.802 3.129-4.352 2.132-8.792 4.128-13.269 6.055-10.128 4.377-20.604 8.061-31.256 11.258-20.957 6.292-41.893 9.388-63.964 9.887-39.313.873-86.589-8.719-110.322-39.455-23.605-30.567-1.777-71.02 14.962-99.858 16.128-27.79 37.588-52.886 62.285-74.926 12.787-11.417 26.589-21.888 41.018-31.587 6.771-4.546 13.724-8.86 20.785-13.033 8.243-4.864 15.745-9.988 24.522-14.059 9.01-4.166 17.962-8.429 26.966-12.602 9.15-4.234 19.569-6.983 29.283-10.277 18.796-6.383 38.468-10.499 57.933-14.837 83.838-18.673 173.856.511 251.648 30.085 25.257 9.598 49.939 20.381 74.75 30.857 12.336 5.204 24.729 10.316 37.231 15.209 12.19 4.774 24.573 10.017 37.401 13.22 11.822 2.948 24.433 3.571 36.577 4.677 15.242 1.389 30.536 2.143 45.825 2.744 23.06.901 46.147 1.349 69.191 2.517v-.93c-38.323-1.956-76.776-1.927-115.016-5.249-10.585-.919-21.263-1.792-31.697-3.668-10.434-1.882-20.299-6.004-30.08-9.637-20.45-7.603-40.474-16.083-60.472-24.57-37.567-15.94-75.134-31.876-114.763-43.264-19.817-5.692-40.022-10.221-60.42-13.827-19.884-3.509-39.644-5.023-59.87-5.866-41.132-1.713-81.243 5.775-120.504 16.252a299.668 299.668 0 00-26.93 8.566c-3.715 1.377-7.538 1.864-11.269 2.958-4.73 1.384-9.424 4.292-13.848 6.344-9.005 4.189-17.978 8.453-26.993 12.608-8.414 3.872-15.6 9.325-23.516 14.059-56.363 33.655-103.251 80.169-130.72 136.076-13.185 26.83-25.381 59.648-2.761 85.476 22.692 25.907 60.404 34.784 95.536 36.734z" fill="#DBDBDB"/><path d="M693.86 534.196c-30.381 4.022-59.69 9.92-83.496 29.373-12.75 10.435-21.781 24.153-30.775 37.245-8.978 13.087-17.693 26.331-28.459 38.326-25.158 28.073-63.637 41.141-103.198 39.27-40.795-1.937-80.46-18.785-111.261-42.492-29.37-22.607-53.881-51.339-67.911-84.014-15.061-35.113-9.399-73.853-15.191-110.497-1.326-8.424-3.186-16.746-5.932-24.898-1.176-3.492-2.684-6.893-4.264-10.261-2.072-4.399-6.098-8.673-6.398-13.514-.254-3.878-8.082-10.284-10.906-13.016-5.336-5.17-11.611-9.49-18.273-13.174-27.687-15.306-61.715-14.15-91.718-5.805-36.883 10.26-68.456 31.779-105.567 41.371-37.919 9.818-85.19 7.314-112.068-21.837-5.963-6.473-9.849-14.263-11.637-22.482-2.098-9.638 1.254-19.61 2.233-29.212.902-8.843 5.762-17.138 9.855-25.147 3.787-7.427 8.004-14.666 12.48-21.775 17.548-27.89 40.432-52.873 66.518-74.614 58.006-48.322 133.824-79.217 213.03-83.203 21.236-1.066 42.571.193 63.559 3.101 21.071 2.915 41.157 9.168 61.182 15.522a906.898 906.898 0 0162.523 22.392c8.523 3.408 17.123 5.545 25.475 9.371 9.838 4.524 19.63 9.133 29.432 13.73 21.035 9.864 42.121 19.62 63.7 28.469a599.98 599.98 0 0014.268 5.629c5.528 2.104 11.978 2.58 17.885 3.414 11.216 1.587 22.552 2.494 33.883 3.105 43.654 2.364 87.355-1.138 131.031-.731v-.923c-37.593-.397-75.17 1.984-112.763 1.365-22.615-.38-45.193-2.147-67.383-6.206-5.347-.981-11.383-4.411-16.403-6.446a813.4 813.4 0 01-13.89-5.823c-9.927-4.251-19.755-8.701-29.547-13.208-18.91-8.696-37.644-17.687-56.591-26.31-2.782-1.27-5.134-2.607-8.269-2.76-5.554-.272-12.398-4.315-17.496-6.315-9.548-3.753-19.211-7.301-28.915-10.726-20.034-7.063-40.411-13.74-61.067-19.172-19.315-5.073-39.427-7.182-59.436-8.373-76.372-4.552-154.733 20.528-215.433 61.371-27.106 18.243-51.405 39.791-71.984 63.985-10.574 12.444-19.962 25.698-28.24 39.479-3.995 6.644-7.627 13.457-11.026 20.362-3.279 6.638-6.916 13.169-7.398 20.437-.57 8.532-3.026 16.717-2.731 25.323.234 6.837 3.145 13.538 6.73 19.478 7.632 12.664 21.346 21.938 35.8 27.517 32.998 12.709 72.813 8.005 104.868-4.818 36.007-14.411 69.745-35 109.613-39.785 35.427-4.252 71.097 7.279 91.956 33.99 1.642 2.098 1.368 4.298 2.528 6.475 2.518 4.682 5.352 9.025 7.502 13.888 3.798 8.583 5.906 17.733 7.59 26.814 3.59 19.422 4.072 38.969 5.02 58.594.86 17.903 2.896 35.262 9.347 52.291 5.818 15.353 14.714 29.624 24.728 43.036 4.694 6.292 9.777 12.348 14.978 18.325 6.021 6.915 13.372 12.311 20.175 18.581 12.47 11.507 27.143 20.93 42.613 28.852 33.075 16.951 70.937 25.877 109.032 21.135 22.729-2.833 45.577-12.98 62.286-26.972 16.351-13.709 27.775-31.519 39.359-48.478 14.268-20.898 29.179-41.318 53.949-53.095 18.62-8.856 39.639-12.19 60.498-14.73v-.804z" fill="#DBDBDB"/><path d="M694.993 523.309c-3.01.191-6.01.4-9.02.646-4.072.339-8.134.817-12.191 1.384-2.378.33-4.756.785-7.108 1.235-3.305.636-7.336-.26-10.512.502-17.076 4.068-34.583 7.528-49.203 16.89-6.994 4.477-12.258 10.899-17.838 16.667-6.751 6.984-12.357 14.489-17.62 22.44-10.621 16.077-19.263 33.478-32.267 48.185-25.029 28.273-63.104 37.719-102.013 34.352-37.727-3.265-72.766-21.177-99.68-44.545-26.729-23.211-46.297-52.723-55.265-85.147-2.606-9.414-3.44-19.059-4.855-28.663-1.404-9.571-2.466-19.091-1.798-28.751.648-9.218 2.503-18.334 3.01-27.575.467-8.685-.818-17.381-2.15-25.964-4.896-31.553-19.008-62.891-51.871-78.231-31.179-14.557-70.098-14.529-103.655-8.395-35.862 6.559-65.481 24.971-98.841 37.42-16.025 5.986-33.101 9.978-50.556 8.731-18.542-1.327-38.64-9.899-47.913-24.887-7.953-12.869-6.295-29.002-1.109-42.393 1.337-3.435 3.104-6.723 5.026-9.915 1.818-3.026 1.492-6.037 3.108-9.24 3.865-7.612 8.166-15.039 12.756-22.312 17.838-28.344 41.452-53.458 68.745-74.768 29.677-23.156 63.902-41.61 101.054-53.214 19.999-6.247 40.753-9.914 61.736-12.199 23.097-2.517 44.945-1.184 67.658 3.067 21.138 3.951 41.401 9.241 61.363 16.638 20.428 7.569 40.297 16.316 59.964 25.329 19.138 8.764 38.302 17.557 57.109 26.882a697.211 697.211 0 0124.791 12.88c4.709 2.573 8.968 5.402 13.273 8.492 3.756 2.698 8.243 4.263 11.662 7.346 5.181 4.667 15.657 5.499 22.46 7.545 8.16 2.461 15.408 5.465 24.19 6.073 21.449 1.473 43.623-2.087 64.87-4.423 22.62-2.483 45.183-5.244 67.865-7.12a636.995 636.995 0 0133.987-1.899c3.616-.107 7.222-.142 10.838-.158v-.93c-2.73.017-5.466.051-8.196.102-11.362.215-22.703.895-34.028 1.758-21.791 1.66-43.484 4.302-65.192 6.74-20.765 2.335-41.991 5.385-62.964 5.334-9.144-.023-18.402-1.74-26.816-4.859-9.725-3.599-21.351-4.369-29.013-11.263-2.591-2.341-7.554-3.895-10.523-6.032-3.227-2.318-6.201-4.336-9.766-6.326-8.818-4.922-17.848-9.529-26.93-14.054-18.771-9.359-37.987-18.095-57.099-26.882-37.453-17.216-75.232-32.97-116.493-41.088-20.983-4.127-40.992-6.405-62.508-4.999-20.014 1.309-39.997 4.54-59.296 9.427-36.152 9.144-69.657 25.572-99.422 46.003-27.298 18.735-51.203 41.275-70.683 66.7-10.103 13.185-18.78 27.228-26.267 41.746-1.492 2.896-1.41 6.552-3.114 9.24a55.67 55.67 0 00-3.844 7.172c-2.684 6.008-4.466 12.159-5.305 18.587-1.472 11.248 1.077 23.815 9.061 32.841 9.839 11.111 25.614 17.301 40.909 19.535 32.189 4.716 63.808-11.327 91.344-24.071 16.305-7.551 32.557-14.908 50.369-19.132 20.341-4.83 42.121-7.783 63.166-5.998 18.48 1.564 36.935 4.858 53.529 12.613 18.849 8.798 31.319 23.979 39.427 41.292 7.642 16.304 10.714 34.444 12.196 51.985.756 9.162-.622 18.413-1.808 27.506-1.29 9.896-1.622 19.412-.508 29.34 1.974 17.824 4.606 35.285 10.751 52.37 5.326 14.828 13.688 28.389 23.36 41.257 38.111 50.759 108.706 88.245 178.126 71.35 19.527-4.751 36.525-15.19 49.845-28.732 16.403-16.686 26.081-38.197 38.997-57.014 7.119-10.389 16.367-20.749 26.169-29.243 9.44-8.173 22.122-12.492 34.458-15.817 5.715-1.537 11.533-2.833 17.315-4.194 3.476-.817 7.005.195 10.357-.52a176.257 176.257 0 019.46-1.732c6.922-1.082 13.916-1.626 20.936-2.067v-.85z" fill="#DBDBDB"/><path d="M694.84 512.834c-33.163.567-66.534 1.092-97.8 12.256-13.191 4.704-23.517 18.358-30.687 28.811-8.865 12.901-15.154 27.121-22.314 40.816-7.715 14.782-16.807 27.868-31.065 38.266-16.216 11.824-36.691 18.989-57.436 20.285-38.416 2.368-77.361-14.708-104.934-37.756-28.635-23.948-47.815-56.726-52.556-91.667-2.606-19.309-2.072-38.651-.543-58.017 1.518-19.161 3.73-38.367 1.844-57.562-1.668-16.858-5.171-33.367-14.823-48.105-8.294-12.688-21.314-23.833-35.328-31.316-15.263-8.146-33.759-10.589-51.1-12.432-21.123-2.25-42.437-1.893-63.549.267-39.588 4.053-76.284 17.534-113.623 28.979-16.304 4.988-35.831 8.221-50.441-2.103-18.823-13.293-7.057-41.927.658-58.027 14.708-30.657 38.11-58.945 65.129-81.655 13.735-11.541 28.977-21.553 45.09-30.215 18.656-10.029 41.416-16.184 62.399-20.923 81.698-18.442 156.779 18.038 220.215 60.821 31.039 20.94 60.523 44.677 94.407 61.915 15.33 7.801 31.878 11.276 49.457 9.144 10.009-1.213 18.656-4.966 27.94-8.202 10.326-3.6 20.771-6.865 31.309-9.893 41.281-11.87 84.402-18.912 127.751-19.433v-.906c-34.961.442-69.642 5.146-103.531 13.067-20.578 4.812-40.768 10.951-60.549 17.947-10.217 3.611-19.278 6.462-30.355 7.205-10.818.726-23.024-1.565-32.749-5.646-18.34-7.688-35.023-18.889-51.052-29.869-15.077-10.324-29.925-20.919-44.992-31.265-29.163-20.044-59.435-39.042-93.08-52.527-35.453-14.212-73.88-21.168-112.613-16.985-20.226 2.183-40.007 7.722-59.021 14.161-18.034 6.117-34.25 14.479-49.721 24.773-27.94 18.583-51.1 42.369-69.424 68.832-9.834 14.178-18.595 29.087-24.024 45.119-4.642 13.73-7.767 31.004 4.595 42.063 9.61 8.611 24.019 9.144 36.588 7.319 17.822-2.586 34.624-10.329 51.623-15.516 40.017-12.217 81.521-20.448 123.958-18.809 20.807.799 42.888 3.135 62.094 10.776 17.377 6.911 32.593 20.861 42.141 35.442 11.02 16.849 13.942 38.004 14.357 57.233.43 19.366-2.228 38.696-3.44 58.015-2.228 35.41 1.963 71.113 22.148 102.223 16.657 25.69 40.909 47.108 70.455 60.567 32.682 14.897 70.72 19.23 104.505 5.01 14.102-5.93 27.231-14.795 36.727-25.964 10.424-12.269 16.849-26.902 23.962-40.862 5.575-10.927 11.522-21.711 19.237-31.565 4.186-5.35 9.082-10.18 14.455-14.545 7.652-6.2 16.75-8.889 26.464-11.373 26.334-6.734 53.933-6.938 81.242-7.3v-.874z" fill="#DBDBDB"/><path d="M31.612 275.569c2.73 3.124 3.643 6.026 6.813 8.884 3.342 3.009 5.274 4.682 9.616 6.383 3.352 1.315 6.222 2.675 9.88 2.867 6.18.33 12.382.529 18.579.692 22.159.579 44.349.103 66.507-.662 22.247-.772 44.484-1.922 66.725-2.852 10.689-.448 21.387-.822 32.076-1.105 5.351-.142 10.698-.238 16.05-.313 4.678-.062 11.761 1.145 16.19-.102 7.326-2.069 16.066-2.715 22.035-7.415 5.264-4.138 11.802-9.733 12.709-16.269 2.139-15.465-6.109-30.193-13.507-43.588-3.326-6.021-6.564-11.366-11.284-16.581-4.668-5.142-9.927-9.814-15.543-14.117-9.59-7.357-20.578-13.123-32.178-17.516-39.21-14.842-84.937-10.799-123.172 4.416-19.864 7.902-37.934 19.359-52.923 33.474-17.268 16.265-32.09 40.369-28.728 63.475.088.578 1.114.59 1.026 0-2.72-18.667 6.958-34.603 16.812-50.323 3.352-5.351 9.17-10.271 13.91-14.648 5.389-4.966 11.269-9.49 17.408-13.696 22.512-15.425 49.546-25.323 77.419-29.308 28.221-4.036 57.767-1.106 83.75 9.802 12.926 5.43 24.562 13.083 34.593 22.181 12.714 11.532 20.666 26.162 27.106 41.219 4.176 9.774 7.678 22.852.85 32.148-8.528 11.61-23.641 15.794-38.443 15.857-26.749.113-53.487 1.337-80.2 2.545-26.641 1.207-53.281 2.403-79.957 2.665a859.46 859.46 0 01-39.852-.539c-7.73-.283-17.74-.907-23.49-6.417-2.404-2.302-5.653-4.399-7.176-7.337-.87-1.683-1.616-3.021-2.88-4.472-.405-.465-1.13.187-.72.652z" fill="#DBDBDB"/><path d="M83.184 251.715c11.47 17.001 35.81 17.948 55.705 18.515 24.237.692 49.965-1.162 73.134-7.96 9.046-2.653 16.056-6.66 22.49-13.01 3.845-3.792 8.705-9.433 9.285-14.67.772-6.945-.493-13.305-3.617-19.684-12.512-25.527-48.068-32.998-76.159-30.946-20.175 1.474-39.639 8.544-55.897 19.274-7.766 5.131-15.947 11.361-19.983 19.314-2.186 4.308-6.222 8.645-6.74 13.373-.596 5.437-.606 10.584 1.73 15.68.254.545 1.243.307.99-.243-7.896-17.195 7.6-34.96 21.63-45.311 13.103-9.661 28.977-16.084 45.442-19.405 32.904-6.645 78.211 1.286 90.2 33.616 5.59 15.091-5.083 30.232-19.781 37.449-9.388 4.603-20.542 6.604-30.951 8.282-25.449 4.111-53.125 5.295-78.626.873-11.802-2.046-21.454-5.957-27.966-15.612-.342-.504-1.228-.046-.886.465zM694.44 500.163c-14.662-.446-29.335-.478-43.966-1.147-20.06-.92-39.908-4.537-60.021-4.593-8.538-.023-16.988 1.059-25.169 3.246-8.548 2.276-14.004 5.893-20.174 11.452-4.782 4.305-6.414 11.132-8.124 16.765-2.59 8.596-4.642 17.326-6.828 26.001-4.316 17.085-9.435 33.999-19.418 49.194-10.621 16.189-26.216 26.8-46.468 31.268-38.313 8.47-76.994-7.561-103.598-31.793-13.988-12.743-25.22-27.71-32.101-44.545-6.59-16.124-8.512-33.492-8.362-50.554.182-19.059 3.901-37.677 7.362-56.417 3.606-19.501 7.072-39.036 10.02-58.628a922.79 922.79 0 003.518-26.055c1.264-10.43.87-21.542 6.093-31.133 9.274-17.023 37.163-12.467 52.923-7.057 29.143 10.016 54.679 33.779 87.988 24.177 16.164-4.66 29.697-15.403 42.043-25.471 6.6-5.385 13.03-10.93 19.729-16.218 3.963-3.124 8.528-5.551 12.46-8.753 2.29-1.854 4.456-3.844 6.632-5.8 1.88-1.705 5.476-2.602 7.952-3.786 1.016-.482 2.14-1.632 2.938-2.342 2.652-2.391 5.844-3.888 9.082-5.532 5.689-2.886 11.367-5.385 17.465-7.54 11.388-4.02 23.236-6.922 35.178-9.263 17.377-3.402 35.101-5.181 52.846-6.265v-.906c-32.521 2.001-65.28 6.316-95.246 18.095-7.679 3.022-15.496 6.655-21.413 11.984-2.43 2.188-6.741 2.914-9.528 4.904-4.792 3.423-8.725 7.715-13.657 11.065-12.522 8.481-23.402 18.707-35.417 27.784-12.942 9.789-27.816 18.429-45.079 19.631-18.076 1.259-34.484-8.413-49.623-15.958-13.646-6.802-27.65-13.395-43.333-15.204-14.268-1.644-29.018 1.343-35.697 13.6-3.466 6.355-3.564 13.572-4.289 20.465-1.073 10.272-2.415 20.521-3.881 30.759-2.911 20.341-6.528 40.612-10.258 60.839-6.134 33.4-12.232 66.948-2.694 100.375 16.066 56.266 90.718 108.84 155.909 81.766 21.196-8.796 34.163-28.263 41.93-47.257 4.403-10.746 7.186-22.003 9.978-33.162 2.964-11.824 4.984-24.966 11.45-35.713 7.362-12.236 25.93-15.817 39.929-16.862 14.077-1.054 28.324.91 42.271 2.373 22.833 2.401 45.753 2.276 68.648 3.07v-.859zM-803.389 622.734c22.886 8.196 48.146 12.548 72.628 14.173 29.977 1.983 60.063-.306 90.066-.139 27.118.158 52.871 4.583 77.687 14.549 18.733 7.514 35.961 17.824 51.544 29.805h1.512c-22.591-17.429-48.495-31.124-77.17-38.856-38.092-10.282-78.561-5.521-117.684-5.521-38.756 0-80.667-4.942-115.148-22.008-8.044-3.975-15.381-9-22.016-14.689-2.883-2.475-6.963-5.907-6.172-9.989.582-3.019 3.757-5.513 6.179-7.384 4.712-3.627 9.519-7.143 14.571-10.384 16.539-10.602 37.245-14.433 56.573-18.994 20.408-4.802 41.121-8.884 61.668-13.217a637.699 637.699 0 0129.307-5.466c4.352-.701 9.696-.691 13.762-2.21.469-.181 1.037-.794 1.246-.966 2.27-1.867 6.153-1.913 9.044-2.48 35.126-6.915 64.622-23.958 91.551-44.953 26.929-21.01 50.596-45.137 76.696-66.952 6.932-5.782 13.971-11.564 21.649-16.541 3.642-2.37 7.133-4.91 10.795-7.256 3.642-2.325 8.361-3.607 11.485-6.407 5.224-4.715 13.788-7.641 20.264-10.872 7.665-3.833 16.594-7.925 25.537-5.613 8.836 2.291 14.825 14.037 19.162 20.68 4.807 7.37 9.013 15.057 13.541 22.574 3.77 6.248 7.818 12.472 12.669 18.107a102.57 102.57 0 008.594 8.865c3 2.745 4.502 6.509 7.564 9.379 12.548 11.777 27.645 20.963 43.193 29.206 17.957 9.497 36.008 18.91 54.188 28.059 34.701 17.438 69.719 33.325 109.597 37.913 40.204 4.625 80.864 3.232 121.099 7.881 5.922.678 11.76 1.235 17.418 3.037 5.326 1.704 10.46 3.697 15.885 5.15 11.206 2.982 21.48 6.293 31.67 11.587 20.823 10.825 40.05 24.557 59.302 37.458 34.468 23.094 68.227 47.043 102.084 70.862h1.658c-28.091-19.737-56.109-39.571-84.49-58.969-17.408-11.893-34.847-23.842-52.799-35.066-15.253-9.525-30.407-19.208-48.141-24.595-8.994-2.716-18.025-5.113-26.977-7.978-8.388-2.675-18.382-2.917-27.159-3.869-20.304-2.173-40.794-2.558-61.186-3.241-20.936-.715-41.862-1.793-62.493-5.201-21.221-3.506-40.665-10.737-59.974-19.198-18.517-8.118-36.484-17.211-54.327-26.462-17.475-9.06-35.37-17.73-52.074-27.915-7.999-4.876-15.491-10.374-22.48-16.37-3.533-3.041-5.688-6.077-8.341-9.717-2.255-3.095-5.727-5.579-8.402-8.424-12.169-12.891-19.461-28.98-28.739-43.537-5.798-9.105-13.603-23.606-27.719-21.746-6.628.873-12.548 3.503-18.373 6.349-3.332 1.621-6.59 3.368-9.897 5.023-3.086 1.552-6.71 2.506-9.215 4.761-3.548 3.198-8.487 4.989-12.642 7.506-3.72 2.245-7.204 4.83-10.795 7.245-7.097 4.762-13.705 9.989-20.252 15.363-13.281 10.918-25.879 22.495-38.534 33.992-25.178 22.857-50.892 45.589-81.932 61.983-17.728 9.376-36.126 14.707-56.16 18.39-2.562.478-3.725 2.405-6.667 2.786-5.065.669-10.106 1.477-15.133 2.317-10.594 1.765-21.098 3.934-31.578 6.191-20.492 4.398-41.147 8.41-61.479 13.365-18.316 4.468-35.968 8.559-51.614 18.595-6.179 3.956-13.047 8.354-17.613 13.82-4.275 5.136-.967 8.944 3.131 12.79 11.338 10.611 25.771 18.027 40.856 23.424z" fill="#DBDBDB"/><path d="M-764.524 601.259c5.375 4.523 13.439 6.516 20.263 8.434 9.246 2.596 18.897 3.91 28.51 4.829 20.852 2.006 42.557-.942 63.452-1.472 21.896-.557 43.512 1.11 64.187 7.96 18.145 5.995 35.403 14.034 51.677 23.378 18.726 10.76 35.845 23.628 51.505 37.788h1.404c-22.25-20.137-47.389-37.449-75.494-50.587-16.665-7.802-34.393-14.378-52.922-17.396-19.961-3.242-40.521-2.234-60.657-1.291-21.718 1.007-42.918 1.996-64.3-2.383-9.822-2.015-20.802-4.783-28.29-11.085-11.124-9.381 5.649-19.946 14.282-23.823 7.468-3.358 15.879-4.965 24.044-6.233 10.423-1.625 20.491-4.309 30.699-6.747 19.852-4.728 40.761-5.717 60.101-12.442 17.683-6.167 34.669-13.648 50.164-23.503 14.521-9.237 27.752-20.034 40.495-31.165 27.373-23.889 52.499-51.189 84.911-69.806 17.405-10.001 35.891-13.118 54.371-3.81 13.957 7.041 24.576 18.741 35.682 28.843 5.547 5.048 12.06 8.276 17.639 13.301 7.077 6.371 15.097 11.405 23.412 16.407 16.921 10.179 34.915 18.794 52.499 27.989 35.106 18.39 69.559 37.644 108.354 49.184 19.283 5.74 39.302 9.455 59.58 10.533 22.004 1.179 43.888.849 65.87 3.041 21.025 2.086 41.842 4.036 61.84 10.621 20.376 6.725 38.215 18.46 56.327 28.955 17.543 10.175 34.417 21.205 51.457 32.044 17.112 10.885 34.893 21.065 51.69 32.322 3.492 2.336 6.999 4.671 10.476 7.031h1.844c-27.599-18.966-56.969-36.01-85.288-54.038-17.429-11.089-35.24-21.631-53.317-31.88-16.693-9.465-33.868-16.691-53.136-20.773-19.506-4.114-40.4-5.373-60.331-6.757-22.408-1.565-45.043-.371-67.295-3.353-42.308-5.661-80.88-22.746-117.504-41.837-18.014-9.39-35.971-18.869-54.011-28.198-17.884-9.26-37.069-18.73-51.746-31.937-2.663-2.406-5.175-5.238-8.336-7.11-3.434-2.02-6.369-3.562-9.303-6.19-5.749-5.171-11.245-10.545-17.076-15.647-10.043-8.787-21.496-16.553-35.524-18.956-16.103-2.745-31.584 4.886-44.39 12.833-15.122 9.366-28.561 20.84-41.615 32.39-26.941 23.847-52.17 49.403-83.628 68.62-16.778 10.249-37.148 18.562-56.697 23.308-19.593 4.774-39.66 7.04-59.222 11.907-16.279 4.059-33.758 4.783-48.558 12.71-5.559 2.982-9.973 7.268-13.218 12.265-2.7 4.161 2.049 9.13 5.123 11.726zm1109.166-66.13c5.134 42.688 56.084 88.654 106.287 78.664 12.9-2.563 23.915-9.706 32.593-18.445 2.632-2.652 3.86-6.386 5.58-9.558 1.554-2.902 5.259-6.891 5.87-9.989a157.373 157.373 0 002.538-19.24c1.835-26.271-3.6-52.992-15.34-77.062-9.435-19.333-23.781-36.679-42.22-49.775-7.859-5.577-17.848-12.584-28.033-13.299-11.383-.793-19.274 1.894-27.977 8.31-16.315 12.042-25.719 31.066-31.925 48.741-6.896 19.639-10.145 41.136-7.373 61.653.073.581 1.099.595 1.021 0-3.606-26.684 2.658-55.007 14.936-79.351 5.731-11.371 13.486-22.198 24.061-30.385 5.984-4.636 12.548-7.845 20.506-8.197 9.952-.453 17.175 2.948 25.319 7.608 27.018 15.419 45.587 40.443 56.099 67.243 5.274 13.417 8.326 27.52 9.636 41.68.596 6.52.684 13.059.446 19.593-.269 7.23.166 17.684-3.86 24.069-2.844 4.547-5.346 9.274-7.792 14.025-2.124 4.138-6.336 7.37-10.108 10.305-6.564 5.136-14.403 8.754-22.755 10.848-16.19 4.082-33.468.544-48.213-5.962-29.801-13.129-54.669-41.406-58.275-71.476-.078-.585-1.088-.585-1.021 0z" fill="#DBDBDB"/><path d="M-561.052 606.809c34.994 22.045 67.153 47.28 97.042 74.661h1.43c-22.8-20.977-46.908-40.792-72.749-58.727-15.223-10.561-31.938-19.547-46.781-30.493-6.9-5.076-12.891-11.902-11.031-20.359.967-4.388 4.781-8.628 7.539-12.269 3.674-4.839 7.873-9.362 12.035-13.876 12.991-14.104 27.973-26.564 42.715-39.149 14.811-12.632 27.827-27.404 43.677-38.921 16.986-12.362 36.067-24.742 59.17-21.182 10.062 1.543 19.637 7.394 28.434 11.824 9.461 4.765 18.702 9.864 27.885 15.047 36.39 20.508 72.754 40.816 110.13 59.874 35.458 18.075 71.522 37.277 111.26 46.51 41.276 9.589 84.755 4.894 126.58 11.549 22.175 3.53 41.665 10.561 61.234 20.434 18.428 9.297 36.354 19.388 54 29.842 21.625 12.808 42.738 26.289 63.762 39.896H157c-28.956-18.72-58.11-37.212-88.376-54.204-17.004-9.548-34.707-20.197-53.317-27.01-18.869-6.905-38.997-10.555-59.197-12.459-21.247-2.006-42.65-2.155-63.964-3.367-21.641-1.235-42.364-4.797-62.87-11.178-20.6-6.418-39.883-16.045-59.042-25.273-18.812-9.069-37.36-18.562-55.804-28.207-36.867-19.3-72.242-40.783-109.125-60.014-14.805-7.718-30.54-17.131-48.47-14.421-18.441 2.779-32.469 12.768-46.623 23.049-7.836 5.703-14.103 12.6-21.016 19.138-7.241 6.883-14.888 13.412-22.527 19.923-14.78 12.617-29.504 25.203-42.525 39.343-8.564 9.293-23.123 22.073-17.101 35.155 5.205 11.308 21.458 18.288 31.905 24.864z" fill="#DBDBDB"/><path d="M-526.608 589.727c6.439 12.618 17.772 22.946 28.208 32.912 5.287 5.057 10.168 10.588 15.677 15.441 7.577 6.669 15.344 12.766 22.471 19.862 8.297 8.243 17.233 15.934 25.493 24.186h1.411c-9.5-9.627-19.947-18.478-29.446-28.119-6.439-6.53-13.952-11.959-20.884-18.051-5.85-5.146-11.054-11.155-16.677-16.528-11.682-11.178-23.419-22.937-28.682-37.835-2.997-8.489-2.231-15.724 1.215-23.911 3.409-8.104 8.039-15.762 13.269-23.016 9.822-13.648 22.697-25.398 36.808-35.475 7.924-5.656 16.19-11.09 25.898-13.899 10.909-3.168 22.022-3.948 33.158-1.398 18.904 4.333 37.687 12.292 55.345 19.639 18.373 7.653 35.966 16.746 53.25 26.201 34.582 18.901 67.999 39.595 104.162 56.067 16.843 7.676 34.433 14.057 52.809 18.037 8.373 1.825 16.926 2.902 25.506 3.446 4.725.306 9.471.283 14.191.148 4.507-.125 7.641 2.178 11.921 2.346 21.708.863 43.478 1.24 64.917 4.704 20.806 3.371 40.613 10.853 59.55 19.105 30.442 13.277 58.575 30.423 85.733 48.539h1.679c-26.925-17.958-54.731-34.853-84.755-48.376-17.366-7.825-35.634-14.722-54.57-18.78-19.543-4.171-39.806-4.895-59.794-5.634-5.056-.181-10.87.26-15.698-1.1-3.29-.915-5.497-1.867-8.983-1.723-10.906.488-21.864-.488-32.588-2.252-20.004-3.279-39.096-10.273-57.276-18.302-36.339-16.031-69.792-36.869-104.209-55.886-33.194-18.32-67.854-33.785-104.644-45.316-16.519-5.168-33.178-3.854-49.008 2.847-6.785 2.879-13.11 7.937-18.966 12.121-7.115 5.08-13.718 10.723-19.897 16.709-11.327 10.997-20.548 23.684-27.182 37.44-2.846 5.893-5.3 11.396-4.908 17.856.38 6.269 2.6 12.325 5.496 17.995z" fill="#DBDBDB"/></g><defs><clipPath id="clip0"><path fill="#fff" d="M0 0h471v503H0z"/></clipPath></defs></svg>